<?xml version="1.0" standalone="no"?>
<!DOCTYPE svg PUBLIC "-//W3C//DTD SVG 20010904//EN"
 "http://www.w3.org/TR/2001/REC-SVG-20010904/DTD/svg10.dtd">
<svg version="1.0" xmlns="http://www.w3.org/2000/svg"
 width="512.000000pt" height="512.000000pt" viewBox="0 0 512.000000 512.000000"
 preserveAspectRatio="xMidYMid meet">
<metadata>
Created by potrace 1.14, written by Peter Selinger 2001-2017
</metadata>
<g transform="translate(0.000000,512.000000) scale(0.100000,-0.100000)"
fill="#000000" stroke="none">
<path d="M1700 4601 c-119 -39 -191 -133 -191 -250 -1 -148 109 -260 257 -261
66 0 142 31 183 74 22 23 25 24 63 10 145 -51 289 -187 372 -351 20 -41 76
-178 76 -188 0 -1 -201 -5 -447 -8 -645 -10 -984 -25 -1005 -44 -9 -8 -22 -38
-28 -66 -15 -72 -40 -291 -40 -357 0 -30 -4 -60 -8 -66 -4 -6 -90 -27 -191
-47 -101 -20 -194 -43 -207 -52 -52 -34 -52 -33 -60 -595 l-7 -525 26 -31 c33
-40 46 -44 247 -89 91 -21 171 -42 178 -47 7 -6 12 -34 12 -70 0 -132 38 -386
66 -440 20 -39 36 -44 154 -57 917 -95 1888 -117 2508 -56 238 24 465 67 495
95 13 12 23 59 42 215 14 110 28 227 32 260 l8 60 70 16 c39 10 133 32 210 49
119 28 144 37 167 62 15 16 28 41 30 56 8 70 -13 1029 -23 1054 -22 53 -42 61
-258 104 l-206 41 -3 29 c-14 137 -83 439 -105 461 -19 18 -357 33 -904 40
l-503 6 34 41 c40 49 164 136 230 161 l47 18 42 -41 c55 -53 109 -80 178 -88
224 -26 394 217 295 420 -106 218 -417 220 -525 5 -17 -34 -31 -75 -31 -90 0
-24 -8 -33 -52 -55 -146 -73 -258 -182 -355 -343 l-21 -34 -12 57 c-30 147
-111 329 -188 426 -73 93 -214 204 -292 232 -20 7 -32 19 -36 36 -22 99 -61
156 -134 196 -55 30 -144 42 -190 27z"/>
</g>
</svg>
